<?xml version="1.0" standalone="no"?>
<!DOCTYPE svg PUBLIC "-//W3C//DTD SVG 20010904//EN"
 "http://www.w3.org/TR/2001/REC-SVG-20010904/DTD/svg10.dtd">
<svg version="1.0" xmlns="http://www.w3.org/2000/svg"
 width="608.000000pt" height="478.000000pt" viewBox="0 0 608.000000 478.000000"
 preserveAspectRatio="xMidYMid meet">

<g transform="translate(0.000000,478.000000) scale(0.100000,-0.100000)"
fill="#000000" stroke="none">
<path d="M2710 4764 c-252 -18 -533 -66 -745 -128 -547 -159 -930 -471 -1175
-955 -26 -52 -33 -59 -67 -64 -21 -4 -54 -7 -73 -7 -56 0 -148 -27 -230 -67
-115 -56 -214 -160 -279 -294 -61 -126 -94 -237 -114 -389 -45 -330 -23 -670
58 -909 96 -283 295 -457 548 -480 63 -5 73 -9 84 -31 6 -14 38 -81 71 -150
210 -446 544 -779 1007 -1006 814 -397 1912 -358 2665 96 283 170 508 383 688
652 53 79 166 297 197 380 10 27 20 48 24 48 53 3 170 25 218 41 247 82 411
332 467 712 19 123 21 439 5 585 -20 185 -67 352 -135 484 -45 87 -172 219
-251 261 -70 37 -192 67 -273 67 -77 0 -82 3 -129 98 -150 300 -407 572 -700
742 -261 151 -586 248 -1001 300 -84 11 -753 21 -860 14z m610 -214 c781 -44
1282 -262 1611 -699 43 -58 77 -106 75 -108 -1 -2 -50 10 -107 27 -337 98
-920 183 -1444 210 -787 41 -1788 -55 -2327 -224 -27 -8 -48 -11 -48 -7 0 14
115 163 180 234 382 416 1122 619 2060 567z m220 -770 c596 -35 1279 -150
1502 -252 42 -20 97 -55 122 -78 57 -52 110 -158 131 -257 29 -140 46 -920 25
-1135 -23 -240 -134 -416 -352 -562 -295 -196 -650 -282 -1015 -247 -156 15
-267 43 -528 130 -354 118 -394 116 -815 -23 -267 -88 -488 -123 -712 -113
-366 17 -715 161 -939 386 -96 97 -148 188 -175 307 -36 153 -27 1133 11 1279
61 231 167 317 487 395 602 147 1495 214 2258 170z m-2362 -2535 c96 -48 306
-122 432 -151 82 -20 144 -26 280 -31 291 -10 498 25 847 143 213 71 225 74
315 74 79 0 106 -5 178 -31 389 -140 613 -189 880 -189 227 0 398 32 621 116
134 50 228 95 299 143 24 17 46 28 48 26 3 -3 -20 -46 -51 -97 -274 -458 -699
-771 -1254 -923 -672 -185 -1471 -96 -2013 222 -324 192 -560 432 -741 757
l-33 59 62 -41 c33 -23 92 -58 130 -77z"/>
<path d="M2575 3530 c-598 -31 -1141 -106 -1427 -196 -62 -20 -83 -32 -111
-64 -19 -22 -40 -59 -47 -82 -31 -104 -36 -1027 -6 -1161 45 -199 216 -381
439 -467 314 -122 696 -131 1018 -26 41 13 153 57 249 97 206 85 254 99 337
99 95 0 150 -16 357 -102 335 -139 495 -174 751 -165 459 16 775 161 910 418
66 125 68 142 71 564 2 422 -9 685 -32 757 -21 64 -75 111 -159 137 -217 67
-689 139 -1165 177 -228 18 -946 26 -1185 14z m-363 -683 c94 -45 176 -129
220 -224 44 -93 51 -218 18 -317 -105 -317 -502 -410 -734 -171 -127 130 -160
327 -83 490 57 119 146 201 267 243 54 19 80 22 151 19 74 -4 97 -10 161 -40z
m1949 27 c106 -31 201 -104 263 -203 123 -194 68 -455 -123 -592 -68 -49 -165
-80 -252 -81 -167 -1 -322 98 -399 257 -60 124 -59 252 4 380 96 194 313 296
507 239z"/>
</g>
</svg>
